<?xml version="1.0" encoding="UTF-8" standalone="no"?> <svg id="Layer_1" data-name="Layer 1" xmlns="http://www.w3.org/2000/svg" viewBox="0 0 512 512"><defs><style>.cls-1{fill:#141f38;}</style></defs><title>note-2-glyph</title><path class="cls-1" d="M460.8,102.4a64,64,0,0,0-64-64H305.59a51.22,51.22,0,0,0-99.17,0H115.2a64,64,0,0,0-64,64V371.2h0V448a64,64,0,0,0,64,64H396.8a64,64,0,0,0,64-64V281.6h0ZM294.4,332.8a64,64,0,0,1,64-64h76.8L294.4,409.6ZM256,25.6a25.6,25.6,0,1,1-25.6,25.6A25.63,25.63,0,0,1,256,25.6ZM396.8,486.4H115.2a38.46,38.46,0,0,1-35.38-23.47A63.69,63.69,0,0,0,115.2,473.6H396.8a63.69,63.69,0,0,0,35.38-10.67A38.46,38.46,0,0,1,396.8,486.4Zm38.4-76.8A38.44,38.44,0,0,1,396.8,448H115.2a38.46,38.46,0,0,1-35.38-23.47A63.69,63.69,0,0,0,115.2,435.2H307.34l127.86-128Z"/></svg>